<svg xmlns="http://www.w3.org/2000/svg" width="776.351" height="436.842" version="1.0" viewBox="0 0 7763.513 4368.416"><g fill="#e7380d"><path d="M222.319 4348.631c-75-30-146-98-185-178l-33-67-3-1894c-3-2105-7-1952 64-2058 152-223 494-192 616 55l23 47v3870l-28 53c-35 67-92 124-159 159-73 37-217 44-295 13zM1679.319 4359.631c-92-30-172-97-217-183l-28-53v-1385c0-1311 1-1390 19-1470 103-475 387-858 803-1082 186-100 388-160 609-180 722-65 1396 379 1628 1073 102 305 102 683 1 987-183 546-632 941-1198 1054-98 20-143 22-372 23h-260l-62-29c-76-35-144-104-180-183-21-46-26-72-27-139 0-75 3-88 37-158 40-80 84-124 167-167 42-22 60-24 285-30 276-8 340-20 490-93 222-107 387-306 457-551 32-114 32-325 1-437-45-156-115-277-225-387-400-402-1054-319-1350 170-38 63-66 130-96 229-15 50-17 185-22 1395l-5 1340-27 57c-35 75-94 138-165 174-50 25-71 29-148 31-49 1-101-1-115-6zM4637.319 4355.631c-104-39-162-92-210-192-24-51-28-73-28-142v-82l629-1825c346-1004 640-1847 653-1873 13-27 48-73 79-104 179-182 463-184 645-3 29 28 64 74 78 103 15 28 309 867 653 1864l627 1812v105c1 96-1 109-27 158-36 68-92 124-159 158-75 39-208 45-290 14-70-26-145-91-180-157-14-26-82-212-151-413s-129-373-132-382c-6-16-45-17-478-20l-472-3-61-28c-77-36-145-104-181-182-23-51-28-73-28-145 0-77 3-92 33-152 40-81 111-149 188-177 51-20 76-21 399-21 190 0 345-3 345-7 0-12-484-1413-486-1410-2 2-228 657-504 1457-275 799-511 1473-525 1496-30 51-92 106-154 136-57 28-204 36-263 15z"/></g></svg>